# xmcd
#
# Track frame offsets:
#	150
#	11733
#	28077
#	43472
#	66478
#	97272
#	119914
#	138040
#	164364
#	191636
#	208960
#
# Disc length: 3372 seconds
#
# Revision: 2
# Processed by: cddbd v1.5.2PL0 Copyright (c) Steve Scherf et al.
# Submitted via: audiograbber 1.83.01
#
DISCID=b20d2a0b
DTITLE=Book Of Black Earth - Horoskopus
DYEAR=2008
DGENRE=Death Metal
TTITLE0=2160
TTITLE1=Death Of The Sun
TTITLE2=Total Control
TTITLE3=Horoskripture
TTITLE4=Cult Of Dagon
TTITLE5=Funeral Of Peace
TTITLE6=God Of War
TTITLE7=The Darkest Age
TTITLE8=From Heaven
TTITLE9=The Great Year
TTITLE10=Christ Pathogen
EXTD=
EXTT0=
EXTT1=
EXTT2=
EXTT3=
EXTT4=
EXTT5=
EXTT6=
EXTT7=
EXTT8=
EXTT9=
EXTT10=
PLAYORDER=
